<svg display="none" xmlns="http://www.w3.org/2000/svg">

	<!-- logo -->
	<symbol id="logo" viewBox="0 0 116 26">
		<g>
			<path d="M7.59623 8.13909H12.12V12.3646H7.59623V25.5334H2.47267V12.3646H0V8.13909H2.47267V7.36288C2.47267 5.01557 3.11461 3.20125 4.39822 1.91994C5.6821 0.638357 7.43215 -0.00162191 9.64756 3.08675e-06C10.8478 3.08675e-06 11.8035 0.187961 12.5141 0.563607V4.93242C11.9038 4.61522 11.2232 4.45632 10.5351 4.47038C9.78339 4.446 9.04637 4.68217 8.44925 5.13798C7.88094 5.58946 7.59651 6.34102 7.59651 7.39294V8.13909H7.59623ZM30.1421 21.3839C29.4357 22.7911 28.3375 23.9655 26.9788 24.7664C25.6023 25.5883 23.9593 26 22.0498 26C20.771 26.0151 19.501 25.7877 18.3074 25.33C17.215 24.9097 16.2222 24.2678 15.3919 23.445C14.5642 22.6148 13.9139 21.626 13.4802 20.5384C13.0099 19.3629 12.7737 18.1075 12.7847 16.842C12.7744 15.5931 13.0107 14.3543 13.4802 13.1964C13.919 12.1119 14.5678 11.1243 15.3897 10.29C16.2048 9.465 17.1781 8.81196 18.2517 8.36984C19.3885 7.90079 20.6086 7.66516 21.839 7.67705C23.0805 7.6635 24.3125 7.89913 25.4611 8.37011C26.5232 8.80447 27.4811 9.45795 28.2719 10.2876C29.0668 11.1389 29.685 12.1385 30.091 13.2289C30.5374 14.429 30.7589 15.7006 30.7446 16.9804C30.7446 17.2854 30.7446 17.5443 30.7283 17.7545C30.7204 17.9201 30.7026 18.0852 30.6751 18.2488H17.8439C17.8855 18.7428 18.0298 19.2228 18.2677 19.6582C18.5034 20.0831 18.818 20.4594 19.1949 20.767C19.5851 21.0857 20.027 21.3358 20.5016 21.5063C20.9938 21.6856 21.5143 21.7755 22.0381 21.772C23.0039 21.772 23.7694 21.5841 24.3347 21.2084C24.9261 20.8043 25.4207 20.275 25.783 19.6582L30.1421 21.3839ZM25.6903 14.9013C25.5933 14.0006 25.1497 13.1725 24.4529 12.591C23.88 12.1468 23.2028 11.8555 22.4855 11.7447C21.7682 11.634 21.0344 11.7074 20.3535 11.9581C19.4917 12.2986 18.7655 12.9112 18.2862 13.7023C18.0655 14.0672 17.9272 14.4756 17.8808 14.8991L25.6903 14.9013ZM51.3089 8.13909V25.5401H46.2547V23.2161C45.6497 24.1036 44.8132 24.8096 43.8355 25.2582C42.8233 25.7268 41.7187 25.9637 40.6027 25.9515C39.4746 25.9667 38.3573 25.7298 37.333 25.2582C36.3423 24.7959 35.4536 24.1418 34.7188 23.3339C33.9556 22.4918 33.3616 21.5114 32.9693 20.446C32.5379 19.2911 32.3219 18.0673 32.3319 16.835C32.3208 15.6087 32.5368 14.3908 32.9693 13.2427C33.3675 12.1794 33.9608 11.1992 34.7188 10.3523C35.4503 9.53785 36.3395 8.87933 37.333 8.41642C38.3564 7.94092 39.4737 7.70012 40.6027 7.71171C41.7156 7.70305 42.8176 7.93063 43.8355 8.37932C44.8162 8.81133 45.6547 9.51041 46.2547 10.3962V8.13909H51.3089ZM37.4558 16.8396C37.4499 17.4446 37.5706 18.0442 37.8103 18.6C38.0382 19.1302 38.3617 19.6142 38.7649 20.0279C39.1794 20.4494 39.6741 20.7843 40.2201 21.0129C40.766 21.2415 41.3522 21.3593 41.9443 21.3593C42.5365 21.3593 43.1227 21.2415 43.6686 21.0129C44.2145 20.7843 44.7092 20.4494 45.1237 20.0279C45.5263 19.6136 45.8499 19.1298 46.0786 18.6C46.3125 18.0424 46.433 17.444 46.433 16.8396C46.433 16.2352 46.3125 15.6368 46.0786 15.0792C45.8499 14.5495 45.5263 14.0658 45.1237 13.6516C44.7094 13.2298 44.2148 12.8947 43.6688 12.666C43.1229 12.4373 42.5366 12.3195 41.9445 12.3197C41.3522 12.3196 40.766 12.4374 40.22 12.6661C39.674 12.8948 39.1794 13.2299 38.7649 13.6516C38.3618 14.0652 38.0382 14.5491 37.8103 15.0792C37.5708 15.6351 37.45 16.2346 37.4558 16.8396ZM60.743 3.029V8.13936H65.16V12.3646H60.743V18.7411C60.743 19.6809 60.9492 20.3507 61.3618 20.7513C61.7742 21.1515 62.4085 21.3511 63.2643 21.3495C63.598 21.349 63.9303 21.3071 64.2537 21.2249C64.5844 21.1462 64.8984 21.0091 65.1809 20.8203V25.2585C64.7046 25.4731 64.2076 25.6388 63.6976 25.753C63.0013 25.9047 62.2898 25.9751 61.5773 25.9632C59.7389 25.9632 58.2896 25.4296 57.2298 24.362C56.1701 23.2949 55.6325 21.7853 55.617 19.8339V12.3646H53.1467V8.13936H55.617V3.02873H60.743V3.029ZM72.158 25.5401H66.9972V0.880211H72.158V10.3523C72.6784 9.52674 73.4019 8.84754 74.2598 8.37932C75.2035 7.89402 76.2552 7.65555 77.3166 7.68625C79.325 7.68625 80.8976 8.32082 82.0345 9.59021C83.1717 10.8591 83.7425 12.5973 83.7471 14.8043V25.5472H78.5888V15.9597C78.5888 14.8322 78.3177 13.9571 77.7754 13.335C77.2329 12.7126 76.4676 12.4047 75.4788 12.4109C75.0212 12.3918 74.5653 12.4769 74.1456 12.6599C73.726 12.8428 73.3538 13.1187 73.0572 13.4666C72.4576 14.1705 72.158 15.1214 72.158 16.3199V25.5401ZM102.687 21.3839C101.981 22.7905 100.884 23.9647 99.5261 24.7664C98.1466 25.5883 96.5028 26 94.5949 26C93.3153 26.0152 92.0444 25.7878 90.85 25.33C89.758 24.9092 88.7654 24.2674 87.9348 23.445C87.1086 22.6145 86.4597 21.6258 86.0275 20.5384C85.5562 19.3632 85.32 18.1076 85.3323 16.842C85.3206 15.593 85.5569 14.354 86.0275 13.1964C86.4654 12.112 87.1136 11.1244 87.9348 10.29C88.7502 9.46559 89.7233 8.81271 90.7965 8.37011C93.1114 7.45223 95.6909 7.45223 98.0059 8.37011C99.0645 8.80474 100.019 9.45829 100.805 10.2876C101.601 11.1382 102.219 12.138 102.624 13.2289C103.072 14.4288 103.294 15.7004 103.28 16.9804C103.28 17.2857 103.28 17.5443 103.262 17.7545C103.255 17.9202 103.237 18.0854 103.208 18.249H90.3912C90.4306 18.7433 90.5751 19.224 90.8152 19.6582C91.0499 20.0838 91.3646 20.4603 91.7421 20.7672C92.1331 21.0851 92.5749 21.3351 93.0491 21.5066C93.5411 21.6856 94.0616 21.7758 94.5856 21.772C95.5525 21.772 96.3189 21.5843 96.8845 21.2084C97.4758 20.8043 97.9704 20.275 98.3327 19.6582L102.687 21.3839ZM98.2354 14.9013C98.1383 14.0006 97.6947 13.1725 96.998 12.591C96.425 12.1467 95.7478 11.8554 95.0305 11.7447C94.3131 11.6339 93.5793 11.7074 92.8983 11.9581C92.0398 12.301 91.3172 12.9144 90.8408 13.7047C90.6211 14.0699 90.4827 14.478 90.4352 14.9013H98.2354ZM115.868 13.1403C115.453 12.9751 115.007 12.9027 114.561 12.928C113.124 12.928 112.005 13.4214 111.204 14.4089C110.402 15.3961 110.001 16.7462 110.003 18.4586V25.5396H104.879V8.13855H109.966V10.9918C110.401 10.0258 111.099 9.20119 111.982 8.61223C112.877 8.02953 113.926 7.7292 114.995 7.75044C115.177 7.75017 115.36 7.76182 115.541 7.78511C115.653 7.79459 115.763 7.81788 115.868 7.85444V13.1403Z" />
		</g>
	</symbol>

	<!-- shopping-cart -->
	<symbol id="shopping-cart" viewBox="0 0 26 25">
		<g>
			<path d="M7 4V3C7 1.35 5.65 0 4 0H0V2H4C4.55 2 5 2.45 5 3V18C5 19.65 6.35 21 8 21H24V19H8C7.45 19 7 18.55 7 18V16.85L23.49 14.26C24.1915 14.1445 24.829 13.7834 25.2888 13.2411C25.7486 12.6989 26.0007 12.0109 26 11.3V4H7ZM24 11.31C24 11.8 23.65 12.22 23.17 12.29L7 14.83V6H24V11.31ZM8 23.5C8 24.33 7.33 25 6.5 25C5.67 25 5 24.33 5 23.5C5 22.67 5.67 22 6.5 22C7.33 22 8 22.67 8 23.5ZM24 23.5C24 24.33 23.33 25 22.5 25C21.67 25 21 24.33 21 23.5C21 22.67 21.67 22 22.5 22C23.33 22 24 22.67 24 23.5Z" />
		</g>
	</symbol>

	<!-- purewow -->
	<symbol id="purewow" viewBox="0 0 97 30">
		<g>
			<path d="M49.1818 1.52797C49.6726 1.45371 50.5573 2.16272 50.6659 2.2661C50.6884 2.28862 50.7092 2.31275 50.7294 2.34006L50.751 2.36853C50.9136 2.5727 50.8482 2.76541 50.7576 3.03077L50.7507 3.05106C50.6771 3.26243 50.3613 4.42495 50.3581 4.43672C50.3496 4.46748 49.3464 7.52998 48.321 11.3057C47.3748 14.7903 46.2145 19.6121 46.0611 22.7944C46.0601 22.8107 46.0578 22.8405 46.0542 22.8817C46.0284 23.1886 45.9502 24.1192 46.0048 25.0412C46.0742 26.2083 46.3261 26.9101 46.7515 27.1267C47.2144 27.2965 47.7206 27.0227 48.3442 26.2646C48.9017 25.5863 49.5591 24.5282 50.5406 22.7257C50.8495 22.1178 52.386 18.8904 53.11 17.3198L54.8736 13.3412L55.8058 11.2541C55.8287 11.185 56.0574 10.6013 56.3227 10.2241C56.3434 10.1943 56.3643 10.1665 56.3842 10.1406L56.3862 10.138C56.5495 9.92501 56.6931 9.83964 56.8112 9.88086C56.8874 9.90864 56.9611 9.93221 57.0324 9.95512C57.2686 10.031 57.4921 10.1037 57.7486 10.3C57.905 10.4112 57.9685 10.796 58.0104 11.0505C58.0225 11.1242 58.033 11.1877 58.0431 11.2285C58.1413 11.7979 58.2257 12.3148 58.3049 12.8056C58.4007 13.4479 58.4783 14.1294 58.5683 14.9202C58.7476 16.496 58.9704 18.4568 59.4867 21.5595C59.4896 21.5775 59.4926 21.6001 59.4965 21.6269C59.541 21.9394 59.6594 22.7692 59.984 23.5305C60.3926 24.4902 60.9685 24.9656 61.6949 24.9482C62.2979 24.8795 63.021 24.2235 63.8439 22.9985C64.9406 21.0976 65.7546 18.5252 66.1342 15.7562C66.5327 12.8498 66.4463 9.90965 65.8845 7.25484C65.8633 7.1999 65.3601 5.87575 65.5508 5.58371C65.5712 5.55066 65.6071 5.52823 65.6486 5.52665C66.0586 5.50704 66.108 5.50835 66.2444 5.61042L66.2529 5.61663L66.2809 5.70753C68.2414 12.5622 67.3678 19.6216 63.8839 25.0772L63.8678 25.0981C63.4792 25.6062 63.3617 25.7597 62.792 26.2361C62.3775 26.5328 62.0258 26.6915 61.5782 26.7838C60.8115 26.9418 59.92 26.7546 59.0676 26.2567C58.2464 25.7773 57.5351 25.0124 57.0649 24.1034C56.5558 23.0538 55.9417 19.9946 55.8239 19.3919C55.6799 18.5975 55.6184 18.2533 55.5454 17.7036C55.5153 17.4756 55.4872 17.2387 55.4626 17.0299C55.4473 16.9013 55.4319 16.7731 55.4162 16.6442C55.4129 16.6193 55.4037 16.5179 55.3929 16.4008L55.3906 16.3769C55.3763 16.2205 55.3599 16.0402 55.3537 15.9914C55.3481 15.9747 55.3429 15.9567 55.337 15.9387C55.3311 15.9207 55.3235 15.8942 55.3111 15.8553C55.3046 15.8294 55.2931 15.7814 55.2843 15.7545C54.9401 16.1508 54.1627 17.896 53.2639 19.9134C52.2143 22.2709 51.024 24.9427 49.992 26.7281C49.7041 27.2301 49.247 27.9649 48.6024 28.5457C47.9062 29.1726 47.1091 29.5119 46.2332 29.5544C45.36 29.5531 44.5757 29.1487 43.9648 28.385C43.424 27.7091 43.0376 26.7694 42.8769 25.7394C42.8674 25.6779 42.7081 24.4257 42.6623 23.6405L42.6106 23.7092C42.5752 23.7556 42.5382 23.806 42.5006 23.8538L42.3891 23.9944C41.8267 24.6969 41.1574 25.3102 40.3739 25.8297C39.5464 26.3745 38.6529 26.7569 37.7891 26.9356C36.6194 27.1777 35.4284 27.0177 34.4361 26.4847C33.426 25.9422 32.7203 25.0601 32.4497 24.0013C32.2596 23.257 32.256 22.44 32.4396 21.5733C32.6244 20.6983 32.9857 19.6451 33.5131 18.4407C33.8507 17.6699 34.7096 16.1308 35.7874 15.2539C36.2415 14.8845 37.9377 14.2403 39.1623 14.6705C39.781 14.8878 40.1694 15.3452 40.3167 16.03L40.3321 16.1004C40.4053 16.4357 40.4806 16.7825 40.3726 17.112C40.2493 17.4896 39.9725 17.8855 39.5258 18.3226C39.4031 18.4443 39.2651 18.5654 39.1087 18.6923C38.9699 18.8049 38.8152 18.923 38.6212 19.0637C38.4968 19.1527 38.3515 19.2577 38.1978 19.349C38.0862 19.4154 37.9684 19.4759 37.8546 19.5348H37.8516L36.9446 20.0027C36.9001 20.0256 36.8131 20.0642 36.7123 20.1087C36.4682 20.216 36.1342 20.3639 36.0714 20.4359C35.7788 20.7713 35.6866 21.2716 35.5884 21.8009C35.5626 21.9413 35.5361 22.0853 35.5056 22.2263C35.2439 23.4379 35.0711 24.2385 35.2596 25.2129C35.2838 25.3359 35.3205 25.4775 35.4117 25.5927C35.5724 25.7959 35.8816 25.8944 36.3298 25.8849C37.2639 25.8656 38.0688 25.5508 38.9905 25.084C39.5399 24.8055 40.0441 24.4499 40.5319 24.1057L40.8284 23.8972C41.3555 23.5301 41.8113 23.0767 42.2523 22.6382L42.3073 22.5836C42.3848 22.5064 42.4627 22.4226 42.5451 22.3339C42.6174 22.2561 42.692 22.1756 42.7689 22.0977C43.0038 20.5707 43.6059 18.0006 44.4238 15.0412C45.1286 12.4908 45.8778 10.0683 46.2888 9.01242C46.4665 8.55632 46.8549 7.52832 47.2308 6.53398L47.2386 6.51303C47.7674 5.11462 48.3665 3.52939 48.568 3.03207C48.6305 2.8783 48.6577 2.7134 48.6865 2.53868C48.7041 2.43265 48.7221 2.32274 48.7489 2.21344L48.7565 2.18236C48.799 1.99812 48.9001 1.57016 49.1818 1.52797ZM10.3226 0.527508C12.2203 0.309277 14.0718 0.538324 15.6823 1.18844C16.3808 1.47112 17.1356 1.96059 17.7013 2.4972C18.4666 3.22323 18.9221 4.05232 19.0152 4.86326C19.0464 5.12244 19.0625 5.38628 19.0625 5.6539C19.0625 6.50762 18.899 7.32316 18.6171 8.0267C18.2864 8.88295 17.7622 9.7261 17.0594 10.5333C15.7804 12.0027 14.1549 13.0828 13.0795 13.7976C12.8266 13.9658 12.6084 14.1108 12.4264 14.2423C11.1174 15.1659 9.59197 15.9044 8.11669 16.6187L7.88209 16.7322C7.78489 16.7793 7.25812 16.9842 7.22279 16.9959C7.19432 17.0074 7.14458 17.0237 7.08176 17.0444C6.85994 17.1173 6.44962 17.2528 6.43459 17.3493C6.31451 18.1192 6.33445 18.8632 6.3554 19.6508C6.36128 19.8638 6.36716 20.0846 6.36978 20.3028C6.37141 20.4363 6.37436 21.4169 6.37795 22.6586C6.38547 25.1946 6.39661 29.0267 6.40838 29.1625C6.41789 29.2688 6.36945 29.3548 6.26334 29.4247C6.15241 29.5032 6.01768 29.5502 5.87127 29.5528C5.80201 29.5524 5.73518 29.5417 5.67711 29.5234C5.35158 29.4268 3.70451 28.1649 3.59784 27.8753C3.55855 27.768 3.55169 27.6499 3.54515 27.5357C3.54417 27.5177 3.54188 27.4997 3.54188 27.4817C3.53698 27.4032 3.52812 27.1856 3.51799 26.9337C3.50491 26.6104 3.49018 26.2446 3.47841 26.0483C3.44239 25.4502 3.41066 21.4748 3.49181 17.1664C3.56545 13.3187 3.74406 8.26621 4.18709 6.04819C4.24043 5.78185 5.03452 4.75153 5.80471 4.49535C6.12799 4.38671 6.40152 4.42992 6.61877 4.62622C6.81608 4.82807 6.75685 5.71769 6.73754 6.00989C6.7346 6.05277 6.73263 6.08385 6.73263 6.09496C6.73198 6.5576 6.64919 8.26487 6.58376 9.63906C6.54873 10.3658 6.51862 10.9959 6.50457 11.3473C6.49411 11.6065 6.48133 11.8741 6.46891 12.1326C6.41721 13.2035 6.3652 14.311 6.46335 15.3858C6.48071 15.5753 6.49476 15.6666 6.55595 15.7062C6.61713 15.7457 6.72675 15.715 6.92011 15.6407C7.10039 15.5713 7.7842 15.1617 8.38755 14.8018C8.6866 14.6225 8.97027 14.4523 9.14467 14.3542C10.1308 13.7927 11.8172 12.2157 13.243 10.5195C15.6093 7.70572 16.1001 6.04228 16.1806 5.31541C16.193 5.20293 16.1993 5.08865 16.1993 4.97288C16.1993 4.36915 16.027 3.80568 15.7366 3.34198C15.2347 2.52792 14.3598 1.91477 13.1873 1.53436C12.4785 1.30097 11.7211 1.17468 10.9341 1.17468C10.6708 1.17468 10.4107 1.18882 10.1865 1.21361C9.26085 1.30685 8.31593 1.57091 7.37788 1.99625C5.71868 2.75043 4.10959 4.0065 2.84598 5.53414C2.26819 6.23302 1.83301 6.9705 1.55294 7.72631C1.52218 7.80942 1.46819 7.85884 1.39655 7.8693C1.2732 7.88731 1.09785 7.78259 0.97414 7.61933C0.850435 7.45608 0.810527 7.28331 0.867135 7.15702C1.70083 5.29761 3.33319 3.47581 5.23447 2.28746C6.73855 1.34745 8.49785 0.738873 10.3226 0.527508ZM25.6363 12.073C25.7744 12.0406 25.9256 12.0884 26.0617 12.2068C26.2033 12.3302 26.3424 12.46 26.4769 12.5857C26.5366 12.6417 26.5967 12.6976 26.6572 12.7532C26.6761 12.7709 26.6951 12.7889 26.7141 12.8072C26.7517 12.8435 26.7907 12.8815 26.8322 12.9142C27.1921 13.2031 27.3423 13.5951 27.305 14.1474C27.2854 14.4393 27.2726 14.7367 27.2602 15.0239V15.0429C27.2494 15.3233 27.2383 15.6054 27.2275 15.8795C27.2205 16.0597 27.2133 16.2399 27.2059 16.4201C27.1974 16.6297 27.1886 16.8393 27.1797 17.0489L27.147 17.8725C27.131 18.2729 27.1175 18.6705 27.1074 18.9713L27.1073 18.9813C27.1073 19.01 27.109 19.0383 27.112 19.0628C27.1133 19.0752 27.1153 19.088 27.1153 19.1004L27.1418 19.1082L27.1692 19.0716C27.1908 19.0422 27.2134 19.0117 27.2347 18.9813C27.413 18.7248 27.5936 18.4634 27.768 18.2104C28.1911 17.5973 28.6285 16.9635 29.0712 16.3474C29.2767 16.0612 29.5181 15.7889 29.7514 15.5272C29.8057 15.4665 29.8597 15.4057 29.9134 15.3446C30.2873 14.9196 30.9859 14.93 31.3785 15.2052C31.5846 15.3501 31.8192 15.5324 31.9969 15.7941C32.1353 15.998 32.2861 16.1989 32.4317 16.3952C32.5057 16.494 32.5819 16.5964 32.6558 16.6978L32.6607 16.7045C32.6967 16.7479 32.7257 16.7974 32.747 16.8537C32.7483 16.8618 32.749 16.8701 32.749 16.8786C32.749 16.9024 32.7436 16.925 32.7353 16.9415C32.7306 16.9541 32.7266 16.9669 32.7226 16.9828L32.7206 16.9907L32.7128 16.9887C32.6994 16.9858 32.6843 16.9838 32.6696 16.9819C32.6354 16.9788 32.6046 16.9664 32.5797 16.9474C32.3856 16.7829 32.19 16.614 32.0012 16.4504C31.881 16.347 31.7622 16.245 31.6449 16.1443C31.5762 16.0854 31.5044 16.0298 31.4222 15.9729C31.3468 15.9162 31.253 15.8826 31.1514 15.8826C31.0536 15.8826 30.9632 15.9137 30.8823 15.9709C30.7147 16.0836 30.5626 16.2174 30.4274 16.3713C30.1519 16.6922 29.8888 17.0224 29.6461 17.3528C29.4566 17.6106 29.2852 17.8858 29.1196 18.1521L29.0853 18.2074C29.0022 18.3406 28.9249 18.4747 28.8451 18.6122C28.7653 18.7496 28.6832 18.8919 28.5971 19.0293C28.214 19.6425 28.0262 20.3103 27.8802 20.9405C27.6446 21.961 27.4316 22.9874 27.2258 23.9797C27.1221 24.478 27.0047 25.067 26.917 25.6559C26.8816 25.8931 26.8787 26.1385 26.8787 26.3757C26.8767 26.4425 26.8767 26.5106 26.8767 26.576C26.8708 26.8836 26.8708 27.1963 26.8708 27.499V27.7909C26.8705 27.9142 26.8074 28.0111 26.6765 28.0853C26.4462 28.2162 26.225 28.2378 26.0002 28.1508C25.6298 28.0068 24.7271 27.1443 24.5501 26.9729C24.3132 26.7439 24.1539 26.453 24.0492 26.0568C24.0152 25.9278 24.0194 25.7888 24.0237 25.654C24.0256 25.6327 24.0256 25.6115 24.0256 25.5902C24.0351 25.2074 24.0469 24.818 24.0583 24.4417C24.0662 24.1918 24.0736 23.9418 24.0806 23.6918C24.0829 23.6139 24.0937 23.4114 24.1113 23.1192C23.3807 24.7143 22.6583 26.0086 21.8429 27.1901C21.8043 27.2457 21.7615 27.3096 21.7121 27.3835C21.3162 27.9741 20.579 29.078 19.8254 29.2165C19.7728 29.2266 19.7185 29.2321 19.6625 29.2321C19.4749 29.2306 19.3018 29.1682 19.1642 29.0653C18.3865 28.5133 17.9389 27.9898 17.7135 27.3681C17.4746 26.7108 17.4256 26.0149 17.3961 25.3585C17.3523 24.4156 17.436 23.4624 17.5159 22.5408C17.5515 22.1239 17.5888 21.6943 17.614 21.269C17.6147 21.2568 17.6176 21.2398 17.6176 21.2192C17.63 21.0543 17.6627 20.6231 17.5669 20.4808C17.5286 20.5357 17.49 20.5894 17.4527 20.6414C17.3673 20.7598 17.2868 20.8717 17.2174 20.9905C16.9707 21.4123 16.7227 21.8425 16.4826 22.2587C15.9781 23.1333 15.4562 24.0376 14.9189 24.9145C14.6497 25.3539 14.2933 25.7387 13.8889 26.1601C13.4139 26.6555 12.8524 26.6738 12.3086 26.2121C12.2484 26.1624 12.1807 26.1071 12.1087 26.0485C11.4952 25.5486 10.4688 24.7113 10.4688 23.4003C10.4691 22.6579 10.5752 21.9162 10.6776 21.1963C10.7181 20.9127 10.76 20.6189 10.7947 20.3296C10.8791 19.6275 10.9753 18.9028 11.0892 18.1146C11.1249 17.8659 11.1788 17.6169 11.2309 17.3751C11.2453 17.3082 11.2598 17.2399 11.2744 17.1702C11.2893 17.0962 11.3172 17.0269 11.3542 16.9675C11.4324 16.8457 11.524 16.8215 11.651 16.8892C11.9448 17.0453 12.766 17.52 12.8792 17.6015C13.2899 17.8967 13.5555 18.3344 13.6688 18.9034C13.761 19.3664 13.7293 19.796 13.7123 20.027C13.6311 21.1365 13.5915 22.2633 13.5536 23.3532L13.5412 23.7072L13.5411 23.721C13.5411 23.902 13.5571 24.0793 13.585 24.2333C13.5961 24.3106 13.6072 24.39 13.6157 24.4683C13.6161 24.4712 13.6233 24.4794 13.6288 24.4859C13.6344 24.4925 13.6422 24.5013 13.6517 24.5131C13.6717 24.5003 13.6923 24.4879 13.7166 24.4735C13.764 24.4467 13.8087 24.4156 13.8487 24.3819C14.3915 23.8931 14.7842 23.292 15.1637 22.7106C15.223 22.6194 15.2827 22.5284 15.3427 22.4377C15.6051 22.0412 17.327 19.2293 17.6801 18.177C17.9232 17.4517 18.2252 16.7299 18.5174 16.032C18.6342 15.7542 18.7549 15.466 18.8701 15.1813C18.9614 14.9559 19.1764 14.8669 19.4453 14.9431C19.9204 15.0766 20.206 15.3812 20.3696 15.9273C20.5178 16.4207 20.471 17.9356 20.4383 19.0415C20.4317 19.2486 20.4259 19.4433 20.4223 19.6069C20.4039 20.4608 20.3251 21.9973 20.2403 22.9236C20.1834 23.5452 20.1572 24.1767 20.1317 24.7886C20.1199 25.1059 20.1049 25.4341 20.0872 25.7564C20.0771 25.9465 20.062 26.1392 20.0476 26.3257C20.029 26.5668 20.0097 26.8165 19.9999 27.0622C19.9963 27.1535 20.0369 27.3043 20.1108 27.3426C20.2273 27.4044 20.3421 27.3053 20.4177 27.2117C20.525 27.0789 20.6277 26.9533 20.7259 26.8319C21.184 26.2665 21.5815 25.7783 22.0347 25.1118C22.462 24.4836 22.8075 23.8145 23.1419 23.1673C23.2348 22.9871 23.33 22.8006 23.4281 22.617C23.7687 21.9754 24.0115 21.2919 24.2461 20.6307L24.285 20.5207C24.3652 19.3906 24.5622 16.6952 24.6623 16.0569C24.7303 15.6122 24.7954 15.1594 24.8586 14.7213C24.9342 14.1984 25.0117 13.6582 25.0978 13.1279C25.1413 12.8596 25.2434 12.5919 25.3471 12.3426C25.4073 12.1983 25.51 12.1024 25.6363 12.073ZM95.7049 12.4415C95.8492 12.4297 96.0269 12.4274 96.1302 12.5256C96.1944 12.5858 96.163 12.6986 96.1299 12.7785C96.125 12.7958 96.1208 12.8119 96.1175 12.8259C96.0953 12.927 96.0361 13.1318 95.9539 13.4149L95.9019 13.5948L95.6401 14.5191C95.1749 16.1557 94.6942 17.8479 94.2035 19.5074C93.8282 20.7769 93.4143 22.139 92.9304 23.4955L92.9071 23.561C92.4801 24.7578 92.0388 25.9953 91.3713 27.0891C91.1197 27.501 90.8678 27.8966 90.5494 28.191C90.1895 28.5257 89.7825 28.6939 89.3061 28.7047H89.2636C88.7064 28.7047 88.1112 28.4528 87.5825 27.9947C87.0783 27.557 86.6931 26.9818 86.5296 26.4157H86.5266V26.4102C86.5165 26.3748 86.507 26.3385 86.4982 26.3022C86.1229 24.7336 85.941 22.8225 86.0116 21.1905C86.0214 20.9631 86.0404 20.0169 86.0515 19.4515C86.0561 19.226 86.06 19.0696 86.0592 19.0366C86.0475 19.031 86.0368 19.0239 86.0273 19.0156C86.0126 19.0039 85.9962 18.9914 85.9832 18.995C85.9701 18.9986 85.956 19.0088 85.9403 19.0313C85.4479 19.7381 84.3904 21.305 84.3577 21.3596C84.144 21.6538 83.7805 22.2787 83.6438 22.514C83.612 22.5686 83.5927 22.602 83.5878 22.6095C83.47 22.7855 83.2342 23.1739 83.062 23.4576C82.9413 23.6572 82.8539 23.8008 82.8405 23.8175C82.4986 24.3871 82.0239 24.8733 81.4297 25.2614C81.397 25.2826 80.617 25.777 79.711 25.0474C79.126 24.5762 78.7756 24.1074 78.612 23.5714C78.5354 23.1088 78.6159 22.5872 78.6941 22.0827L78.7006 22.0405C78.7644 21.6276 78.8482 21.2124 78.9493 20.806C78.9591 20.769 78.9699 20.7262 78.982 20.6784C79.0674 20.3401 79.2431 19.6451 79.2042 19.5575C79.1649 19.5804 79.0095 19.6599 78.7608 19.7865L75.716 21.4002C75.6892 21.4188 75.6378 21.4535 75.637 21.4557C75.6241 21.5431 75.6174 21.6325 75.6174 21.7235L75.6175 21.7428C75.6168 21.801 75.6159 21.8556 75.6103 21.924C75.5743 22.3223 75.4874 22.7058 75.3553 23.0704C75.1224 23.7084 74.7616 24.2848 74.3061 24.7663L74.2008 24.8782C73.742 25.3651 73.2673 25.8689 72.7117 26.2449C72.2894 26.5391 71.799 26.7423 71.2666 26.8266C71.1097 26.8512 70.9489 26.8639 70.7851 26.8639C70.4427 26.8639 70.1133 26.8083 69.8272 26.7118C68.899 26.4094 68.1664 25.6811 67.8173 24.7139C67.4551 23.7108 67.5297 22.6294 67.6347 21.7993C67.9325 19.4504 68.6951 17.2134 69.7978 15.4726C69.9339 15.2338 70.0863 15.0055 70.2437 14.8027C70.2879 14.7455 70.3206 14.7003 70.3533 14.6509C70.6809 14.2282 70.9704 14.1339 71.4226 14.3028C71.8496 14.4621 72.2137 14.7543 72.5082 15.1718L72.5197 15.1689V15.1852L72.5252 15.1928L72.5344 15.2052C72.5779 15.2611 72.5625 15.32 72.5452 15.3825C72.5425 15.392 72.5399 15.4018 72.5373 15.412C72.3996 15.8619 72.2769 16.2859 72.1625 16.7089C72.1695 16.7306 72.1848 16.7487 72.2052 16.7593C72.236 16.7717 72.2769 16.7528 72.3286 16.7292C72.4921 16.654 72.7248 16.5944 72.9578 16.5364C73.0936 16.5038 73.2268 16.4643 73.3285 16.4272C73.6972 16.2852 74.0424 16.2289 74.3843 16.2525C74.8142 16.2826 75.1041 16.4429 75.2707 16.7433C75.4238 17.0194 75.4617 17.3918 75.4876 17.7494L75.5229 18.2212C75.5769 18.9319 75.6322 19.6667 75.6322 20.3924V20.4418C75.6309 20.4733 75.6332 20.4975 75.6368 20.5004C75.6404 20.5034 75.6483 20.5034 75.6623 20.5034L76.2607 20.1997C76.6017 20.0145 76.9694 19.8172 77.3405 19.6248L77.3532 19.618H77.3431L77.3666 19.6059C77.8077 19.3775 78.2481 19.1557 78.7735 18.8939L78.8187 18.8704V18.8772L79.3148 18.6306C79.3959 18.5969 79.4556 18.5221 79.4682 18.4309C79.5264 18.1679 79.6923 17.4484 79.8536 16.7541C80.0149 16.0598 80.1674 15.4038 80.1872 15.2997C80.2149 15.1455 80.3079 15.0139 80.4389 14.9333C80.6228 14.8204 80.8829 14.8008 81.1525 14.8786C81.6034 15.0075 82 15.2837 82.3272 15.6947C82.3756 15.7467 82.3638 15.8069 82.351 15.8704C82.3491 15.8802 82.3468 15.8903 82.3452 15.9005C82.2879 16.2519 82.2254 16.6088 82.1649 16.9543C82.0808 17.435 81.9937 17.93 81.9192 18.4208C81.8855 18.6413 81.8047 19.1098 81.7205 19.6013L81.6783 19.848C81.5655 20.5034 81.4588 21.1224 81.4516 21.2055L81.2461 22.5234L81.2245 22.6566C81.1768 22.9484 81.127 23.2501 81.1889 23.5465C81.1993 23.5956 81.219 23.6257 81.2481 23.6362C81.322 23.6634 81.4437 23.5652 81.5246 23.4998C81.5403 23.4877 81.5547 23.4762 81.5668 23.4671C81.7411 23.26 82.3628 22.5247 82.8863 21.8121C83.6388 20.7864 84.5785 19.4973 84.7186 19.2872C84.7644 19.2463 85.5581 18.0445 85.8568 17.4533C86.1644 16.8421 87.2938 14.5819 87.3423 14.4645C87.4254 14.2606 87.5415 14.1291 87.6871 14.0718C87.8386 14.0123 88.0251 14.0332 88.2407 14.1314C88.5614 14.2776 88.881 14.4913 89.2158 14.7858C89.4072 14.9546 89.431 15.1869 89.4548 15.4208C89.4628 15.5144 89.4766 15.6062 89.4932 15.6816C89.5465 15.9149 89.3126 17.4396 89.1866 18.2576C89.166 18.3904 89.1483 18.5046 89.1356 18.5907C89.0109 19.425 88.9196 20.276 88.864 21.1202C88.7969 22.138 88.7802 23.1716 88.8149 24.1928C88.8218 24.4218 88.8218 24.6548 88.8218 24.8799C88.8211 25.1609 88.8205 25.4515 88.8362 25.7474C88.8482 26.0239 88.8824 26.2948 88.9314 26.5253C88.9847 26.7763 89.0973 27.1061 89.3263 27.251C89.4448 27.326 89.5842 27.3446 89.7412 27.3073C90.0291 27.2383 90.246 27.0089 90.4201 26.7933C90.9943 26.0823 91.3919 25.2297 91.705 24.4896C92.2966 23.0908 92.7805 21.6273 93.2156 20.2531C93.9643 17.8888 94.6667 15.4745 95.3034 13.0769C95.346 12.9179 95.3819 12.7981 95.4035 12.7265L95.4104 12.7032C95.4477 12.5396 95.5413 12.4549 95.7049 12.4415ZM74.6602 21.8486C74.4896 21.9046 74.323 21.9692 74.1932 22.0291C74.0964 22.07 73.9963 22.1122 73.905 22.1474C73.5343 22.2889 73.1319 22.3664 72.7114 22.3664C72.2338 22.3664 71.7795 22.2664 71.3738 22.0878C71.29 22.0484 71.2086 22.0048 71.1415 21.9637L71.0873 21.9329C71.0707 21.9222 71.0512 21.9156 71.03 21.9143C71.0209 21.9143 71.0129 21.9162 71.006 21.9195C70.9661 21.9388 70.9491 22.0124 70.9387 22.0746C70.8843 22.4018 70.8241 22.7342 70.7659 23.0561C70.71 23.365 70.6524 23.6841 70.5994 24.0004C70.5045 24.5678 70.511 25.0327 70.6203 25.4636C70.6625 25.6315 70.7437 25.6776 70.9187 25.6344C71.4952 25.4918 72.1152 25.1463 72.5033 24.8701C73.0412 24.488 73.4332 23.9752 73.812 23.4792C73.885 23.384 73.9609 23.2858 74.0365 23.1877C74.2639 22.8968 74.4425 22.5611 74.5983 22.1358C74.6051 22.1171 74.614 22.0946 74.6231 22.0703C74.6536 21.9905 74.6948 21.8835 74.6602 21.8486ZM72.1848 17.2577C72.1731 17.2577 72.1615 17.2583 72.1506 17.2594C72.0895 17.2655 72.0356 17.2963 71.9987 17.3421C71.9454 17.5548 71.9032 17.7289 71.8656 17.8924C71.7818 18.2615 71.6748 18.6302 71.5711 18.9872C71.4068 19.5516 71.2367 20.1383 71.1536 20.7295C71.1421 20.81 71.1533 20.8587 71.2495 20.935C71.4677 21.1094 71.6179 21.1751 71.8901 21.2949L71.9854 21.3367C72.3005 21.4761 73.0861 21.5065 73.4061 21.4808C73.9015 21.4397 74.352 21.2408 74.7043 20.9369C74.7773 20.8721 74.8074 20.6791 74.8074 20.5649C74.8084 20.4864 74.8113 20.4402 74.8112 20.4105C74.8122 20.3895 74.8128 20.3683 74.8128 20.347C74.8128 20.3015 74.8103 20.2565 74.8061 20.2178C74.7753 19.6485 74.7426 19.3762 74.688 18.9254L74.6848 18.8843C74.6573 18.6881 74.6191 18.4953 74.5787 18.3433C74.4743 17.9 74.2855 17.7488 73.7695 17.7037C73.7168 17.6991 73.6639 17.6952 73.6108 17.6909C73.1927 17.6585 72.7598 17.6248 72.4102 17.3406C72.3495 17.2889 72.2708 17.2577 72.1848 17.2577ZM37.7256 16.4434C37.6435 16.4571 37.5748 16.5173 37.5126 16.5707C37.4982 16.5844 37.4809 16.5982 37.4655 16.6102L37.3729 16.6838C37.1121 16.8906 36.8422 17.1039 36.6655 17.3657C36.5363 17.5574 36.4679 17.7439 36.4623 17.9196C36.462 17.9245 36.4604 17.935 36.4604 17.9491C36.4581 17.9887 36.4496 18.0944 36.4581 18.1091C36.4731 18.1352 36.5271 18.1212 36.55 18.1153L36.5634 18.1123C36.6881 18.0996 36.8321 18.0044 36.9476 17.9278L36.997 17.8951C37.136 17.8051 37.6376 17.3532 37.7466 17.2103C37.797 17.1441 37.9998 16.8438 38.0165 16.7653C38.0279 16.7061 37.9887 16.6188 37.9164 16.5415C37.8509 16.4735 37.7757 16.4349 37.7256 16.4434Z" />
		</g>
	</symbol>

	<!-- forbs -->
	<symbol id="forbs" viewBox="0 0 83 22">
		<g>
			<path d="M20.4979 21.9397C19.0597 21.7263 17.8019 21.1058 16.8413 20.1359C16.0401 19.327 15.5206 18.4373 15.1377 17.2184C14.5398 15.3153 14.5396 12.8685 15.1371 11.0041C15.7162 9.19743 17.0201 7.62474 18.6159 6.80822C20.8258 5.67746 23.9362 5.7485 25.983 6.97647C27.8251 8.0816 28.9408 10.0453 29.2513 12.7282C29.3461 13.5473 29.2846 15.2776 29.1353 15.9917C28.5243 18.915 26.7448 20.957 24.1378 21.7266C23.8568 21.8095 23.4211 21.9066 23.1697 21.9422C22.6375 22.0177 21.0131 22.0161 20.4979 21.9397ZM22.6496 20.7659C23.0697 20.6387 23.5879 20.1433 23.8642 19.6048C24.4346 18.4931 24.6893 16.8491 24.6957 14.2385C24.7036 10.9669 24.2004 8.88506 23.1384 7.79504C22.6924 7.33727 22.3761 7.19514 21.8059 7.19605C20.5404 7.1981 19.7372 8.54475 19.4199 11.1963C19.274 12.4152 19.2733 15.319 19.4185 16.3846C19.868 19.6827 21.0286 21.2565 22.6496 20.7659ZM45.971 21.9389C45.3826 21.8781 43.5845 21.5731 42.9564 21.4275L42.5219 21.3268L42.5558 18.9616C42.6374 13.267 42.6476 10.1582 42.5948 7.13499C42.5431 4.17339 42.528 3.86029 42.4159 3.42216C42.2739 2.86706 42.069 2.4799 41.8226 2.30101C41.7268 2.23155 41.4667 2.13307 41.2445 2.08216C40.506 1.91307 40.5461 1.94015 40.5264 1.59677C40.5151 1.39895 40.5361 1.26825 40.5857 1.22817C40.6523 1.17436 46.7096 -0.00331803 46.9026 7.02763e-06C46.958 0.000974319 46.9659 0.790404 46.9374 3.50771C46.9173 5.43624 46.9147 7.01414 46.9317 7.01414C46.9487 7.01414 47.17 6.91644 47.4236 6.79704C48.1878 6.43715 48.8922 6.28099 49.9152 6.2446C50.5963 6.22041 50.9119 6.23559 51.2613 6.30922C53.5461 6.79112 55.237 8.69734 55.8279 11.4576C55.982 12.1776 56.0393 13.9672 55.937 14.8635C55.8498 15.6275 55.6009 16.6569 55.342 17.3248C54.3647 19.8455 52.2681 21.49 49.4866 21.9174C48.846 22.0157 46.8341 22.0281 45.971 21.9389ZM48.3481 20.7367C48.779 20.6533 49.1137 20.4785 49.4731 20.1491C50.3739 19.3237 51.0511 17.6195 51.3175 15.508C51.4259 14.648 51.4114 12.6884 51.2911 11.9706C50.9659 10.0294 50.267 8.75345 49.2475 8.23969C48.8246 8.02659 48.7594 8.0116 48.2577 8.0116C47.8989 8.0116 47.5903 8.05071 47.3279 8.12954L46.9351 8.24749L46.9061 10.4571C46.8689 13.2875 46.9593 20.3736 47.0351 20.5769C47.0835 20.7066 47.1368 20.7342 47.3769 20.7534C47.9421 20.7987 48.0356 20.797 48.3481 20.7367ZM63.023 21.909C60.0805 21.3681 57.9762 19.2411 57.2886 16.1131C57.2001 15.7109 57.1611 15.2606 57.1389 14.3897C57.1038 13.0118 57.2137 12.1565 57.5626 11.0939C58.2325 9.05349 59.4329 7.60763 61.1768 6.74106C63.0174 5.82643 65.5339 5.76651 67.1628 6.59856C68.9968 7.53539 70.0759 9.40595 70.3497 12.1226C70.3866 12.4884 70.4079 12.9236 70.3972 13.0899L70.3777 13.3921L65.9887 13.4076L61.5996 13.4232L61.6163 13.9517C61.6551 15.1762 61.9133 16.2593 62.3911 17.2008C62.6082 17.6289 62.781 17.8622 63.201 18.2942C64.1495 19.2705 65.0931 19.6483 66.5817 19.6483C67.661 19.6483 68.4372 19.4288 69.2489 18.8939C69.4763 18.744 69.7067 18.6215 69.7609 18.6215C69.8848 18.6215 70.17 18.9958 70.17 19.1584C70.17 19.4249 69.3191 20.2839 68.4891 20.8554C67.8093 21.3234 66.7312 21.7474 65.7964 21.914C65.1417 22.0308 63.6709 22.0281 63.023 21.909ZM64.8853 12.0548L65.9172 12.0182L65.88 11.2711C65.749 8.63646 65.1165 7.19665 64.0906 7.19786C62.9756 7.19913 62.0845 8.66022 61.7141 11.0949C61.6685 11.3941 61.6308 11.749 61.6302 11.8835L61.6292 12.1281L62.7412 12.1098C63.3529 12.0995 64.3177 12.0749 64.8853 12.0548ZM74.8853 21.9677C73.8286 21.8522 72.1469 21.4769 71.5869 21.2315L71.3135 21.1118L71.2761 19.7307C71.2556 18.9711 71.232 17.9554 71.2236 17.4737L71.2083 16.5979L71.3722 16.5178C71.4624 16.4737 71.6443 16.4326 71.7766 16.4263L72.0169 16.4149L72.2217 16.9288C73.0209 18.9335 73.958 20.0144 75.1821 20.3432C75.649 20.4687 76.5246 20.4697 76.8703 20.3453C77.8386 19.9969 78.3696 19.2495 78.3742 18.2286C78.3797 17.0195 77.7277 16.4386 75.2644 15.4578C73.7383 14.8501 73.206 14.5375 72.5721 13.8761C71.8883 13.1627 71.5601 12.3507 71.4985 11.2197C71.4241 9.85301 71.8436 8.70085 72.7736 7.71911C73.7093 6.73108 74.9241 6.19557 76.579 6.04165C78.0363 5.90611 80.2733 6.22114 81.4453 6.72697L81.6591 6.81923L81.6973 8.05023C81.7183 8.72727 81.74 9.63483 81.7455 10.0671L81.7556 10.8529L81.4684 10.9616C81.0144 11.1335 80.9845 11.1119 80.732 10.4299C80.024 8.51803 79.2016 7.61343 77.92 7.33709C77.139 7.16866 76.4866 7.34973 76.0123 7.8665C75.6424 8.26962 75.498 8.62764 75.4631 9.22881C75.4252 9.88016 75.5394 10.2322 75.9298 10.6677C76.411 11.2044 77.1995 11.6677 78.7701 12.3367C80.6938 13.1561 81.6116 13.8517 82.1105 14.8683C82.4346 15.5286 82.5264 16.0559 82.4938 17.071C82.4693 17.8328 82.4454 17.9893 82.2754 18.5007C81.7211 20.1681 80.4698 21.2658 78.5367 21.7805C77.882 21.9548 77.7885 21.9638 76.4866 21.9784C75.7364 21.9866 75.0157 21.9819 74.8853 21.9677ZM0.0788248 21.6043C0.0295371 21.584 0.00468559 21.4333 0.00468559 21.1545C0.00468559 20.6535 -0.0265716 20.6759 0.924011 20.4962C1.65319 20.3583 1.91398 20.2173 2.23598 19.787C2.86023 18.9527 2.99516 17.3464 2.99659 10.7322C2.99789 4.52058 2.88046 3.21389 2.23485 2.25386C1.94838 1.82795 1.46564 1.59664 0.657051 1.49798L0.034282 1.42199L0.0172003 0.926369L0 0.430814L0.195134 0.395387C0.302488 0.37592 4.07273 0.367698 8.57357 0.377069L16.7569 0.394238L16.7952 0.636061C16.8164 0.769063 16.851 2.13331 16.8722 3.66767L16.9108 6.45746L16.4889 6.58811C15.8538 6.78471 15.8576 6.78713 15.5719 6.01656C14.8701 4.12381 14.0654 3.03319 12.9642 2.48244C12.2047 2.1026 11.8536 2.05671 9.70885 2.05671H7.84232L7.81012 2.3741C7.74974 2.96929 7.65454 6.79801 7.6552 8.60104L7.65585 10.3996L8.20448 10.3964C8.50625 10.3946 9.10127 10.372 9.52677 10.3461C10.1663 10.3071 10.3564 10.2725 10.624 10.1462C11.2815 9.83597 11.7287 9.15318 12.0028 8.0414L12.1443 7.46743L12.6284 7.44984L13.1125 7.43225V14.6968L12.6282 14.6792L12.1439 14.6616L12.0064 14.0873C11.7482 13.0081 11.2511 12.2356 10.6369 11.9587C10.3532 11.8308 9.65132 11.7581 8.29345 11.716L7.65585 11.6962V13.0608C7.65585 14.5477 7.7361 16.5594 7.83888 17.6512C7.98218 19.1732 8.36379 20.0142 9.04901 20.3185C9.17985 20.3766 9.59391 20.471 9.96899 20.5283C10.3441 20.5855 10.6978 20.657 10.7549 20.6871C10.8996 20.7633 10.9082 21.5515 10.7649 21.6075C10.6527 21.6515 0.185704 21.6482 0.0788248 21.6043ZM29.3164 21.5928C29.2623 21.5578 29.2446 21.4183 29.2571 21.125L29.2749 20.7073L29.4825 20.6623C29.5966 20.6375 29.8419 20.5882 30.0274 20.5529C30.6017 20.4436 30.9317 20.1259 31.1175 19.5035C31.2688 18.9966 31.3355 17.3747 31.3389 14.1176C31.3432 10.1342 31.2618 9.1935 30.8666 8.66028C30.6524 8.37125 30.4981 8.28909 29.9784 8.1874C29.7219 8.13722 29.452 8.08342 29.3787 8.06782C29.2598 8.04261 29.2452 8.00313 29.2452 7.70684C29.2452 7.41877 29.2631 7.36671 29.3787 7.31823C29.5561 7.24387 35.4319 6.04673 35.6196 6.04673H35.766L35.7373 6.93845C35.7215 7.42886 35.6963 8.14303 35.6812 8.52541L35.6538 9.22065L35.8667 8.82938C36.5481 7.57686 37.3123 6.79928 38.3285 6.32464C38.8863 6.06402 39.2585 5.98627 39.9477 5.98627C40.765 5.98627 41.5821 6.25808 41.5821 6.53001C41.5821 6.71283 40.1421 10.5912 40.0627 10.6222C40.0239 10.6373 39.7427 10.5277 39.4378 10.3785C38.8019 10.0675 38.2053 9.91547 37.6262 9.91674C36.905 9.91831 36.0994 10.1891 35.7813 10.5368C35.6453 10.6855 35.6446 10.6945 35.6108 12.9157C35.5774 15.1154 35.6493 17.7985 35.7706 18.8776C35.874 19.797 36.1137 20.2496 36.6086 20.4604C36.7737 20.5306 37.8184 20.6766 38.1594 20.6769C38.1852 20.6769 38.1985 20.8878 38.189 21.1455L38.1717 21.614L33.7827 21.6284C31.3686 21.6364 29.3588 21.6205 29.3164 21.5928Z" fill="black"/>
		</g>
	</symbol>

	<!-- domain -->
	<symbol id="domain" viewBox="0 0 176 18">
		<g>
			<path d="M41.9667 16.949V1.51049H47.6265C48.6491 1.49645 49.6643 1.68575 50.6132 2.06737C51.562 2.449 52.4256 3.01536 53.1537 3.73356C53.8818 4.45175 54.46 5.30746 54.8546 6.25098C55.2492 7.1945 55.4524 8.20703 55.4524 9.22975C55.4524 10.2525 55.2492 11.265 54.8546 12.2085C54.46 13.152 53.8818 14.0078 53.1537 14.726C52.4256 15.4441 51.562 16.0105 50.6132 16.3921C49.6643 16.7738 48.6491 16.9631 47.6265 16.949H41.9667ZM47.6265 13.8616C48.2416 13.8725 48.8528 13.7608 49.4243 13.5329C49.9959 13.305 50.5162 12.9656 50.9551 12.5344C51.394 12.1032 51.7426 11.5889 51.9806 11.0215C52.2186 10.4541 52.3411 9.84502 52.3411 9.22975C52.3411 8.61449 52.2186 8.00538 51.9806 7.438C51.7426 6.87062 51.394 6.35632 50.9551 5.92513C50.5162 5.49394 49.9959 5.1545 49.4243 4.92663C48.8528 4.69875 48.2416 4.587 47.6265 4.59791H45.0541V13.8616H47.6265Z" />
			<path d="M68.5429 16.9493C67.0157 16.9493 65.5227 16.4963 64.253 15.6476C62.9833 14.7989 61.9938 13.5927 61.4097 12.1816C60.8257 10.7704 60.6733 9.21773 60.9719 7.71996C61.2705 6.22219 62.0066 4.84664 63.0871 3.76733C64.1677 2.68801 65.5441 1.95345 67.0422 1.65656C68.5403 1.35966 70.0928 1.51379 71.5033 2.09944C72.9137 2.68508 74.1188 3.67593 74.9661 4.94663C75.8133 6.21732 76.2646 7.71076 76.2629 9.238C76.2602 11.2838 75.4457 13.245 73.9982 14.6908C72.5508 16.1366 70.5887 16.9489 68.5429 16.9493ZM63.9118 9.238C63.9138 10.1539 64.1872 11.0486 64.6976 11.8091C65.2079 12.5696 65.9322 13.1618 66.7789 13.5108C67.6257 13.8598 68.5569 13.95 69.4549 13.77C70.3529 13.59 71.1774 13.1479 71.8242 12.4994C72.471 11.851 72.9111 11.0254 73.0888 10.127C73.2666 9.2285 73.174 8.29752 72.8229 7.45165C72.4717 6.60578 71.8777 5.88297 71.1159 5.37456C70.3542 4.86615 69.4588 4.59495 68.5429 4.59524C67.3145 4.59717 66.137 5.0863 65.2688 5.95533C64.4006 6.82436 63.9125 8.00231 63.9118 9.23072V9.238Z" />
			<path d="M84.3539 1.51074H85.1366L90.7149 7.54153L96.2729 1.51074H97.076L98.2487 16.9493H95.1613L94.4818 8.01584L90.7149 12.0897L86.9481 8.01584L86.2482 16.9493H83.1594L84.3539 1.51074Z" />
			<path d="M117.971 14.377H110.025L108.625 16.9494H105.106L113.999 0.666992L122.912 16.9494H119.392L117.971 14.377ZM116.283 11.2882L113.999 7.08916L111.713 11.2882H116.283Z" />
			<path d="M133.453 16.9493H130.364V1.51074H133.451L133.453 16.9493Z" />
			<path d="M142.2 1.51074H143.022L152.491 10.5315V1.51074H155.578V16.9493H154.734L145.286 7.92855V16.9493H142.2V1.51074Z" />
			<path d="M164.678 1.51074H176V4.59525H167.765V9.23073H173.941V12.3181H167.765V13.8618H176V16.9493H164.678V1.51074Z" />
			<path d="M14.324 1.46826H13.3434L7.77528 7.50487L2.18243 1.46826H1.22653L0 17.3331H3.37258L4.07387 8.46514L7.77528 12.4779L11.484 8.46514L12.1576 17.3404H15.5302L14.324 1.46826ZM1.00537 16.4034L2.06458 2.70352L7.77673 8.88125L13.4845 2.68751L14.5263 16.4034H13.0204L12.2493 6.2667L7.77528 11.1073L3.30566 6.27107L2.51125 16.4034H1.00537Z" />
			<path d="M32.591 1.46826L28.5011 7.98064L24.4272 1.46826H20.4479L26.8163 11.6428V17.3331H30.1874V11.6428L36.5761 1.46826H32.591ZM29.2577 11.375V16.4034H27.746V11.3765L22.1284 2.39798H23.9122L28.4997 9.73095L33.1104 2.39798H34.8942L29.2577 11.375Z" />
		</g>
	</symbol>

	<!-- bodygreen -->
	<symbol id="bodygreen" viewBox="0 0 177 30">
		<g>
			<path d="M60.46 11.0818V0.36684C60.4619 0.317981 60.4536 0.269269 60.4356 0.223776C60.4177 0.178284 60.3906 0.136996 60.3559 0.102517C60.3212 0.068037 60.2798 0.0411129 60.2342 0.0234413C60.1886 0.00576975 60.1399 -0.00226606 60.091 -0.000159588H58.193C58.1443 -0.00198283 58.0958 0.00626274 58.0505 0.024061C58.0051 0.0418593 57.9639 0.0688271 57.9295 0.103277C57.895 0.137726 57.868 0.178916 57.8502 0.224267C57.8324 0.269619 57.8242 0.318156 57.826 0.36684V21.4298C57.826 21.6438 57.979 21.7968 58.193 21.7968H60.091C60.1397 21.7987 60.1882 21.7904 60.2336 21.7726C60.279 21.7548 60.3201 21.7279 60.3546 21.6934C60.389 21.659 60.416 21.6178 60.4338 21.5724C60.4516 21.5271 60.4599 21.4785 60.458 21.4298V20.5418C60.458 20.3278 60.55 20.2968 60.703 20.4498C61.683 21.5518 63.03 22.1338 64.743 22.1338C66.428 22.1338 67.836 21.5208 68.938 20.2968C70.04 19.0718 70.591 17.5718 70.591 15.7968C70.591 14.0208 70.04 12.5518 68.938 11.3268C67.836 10.1028 66.458 9.49084 64.744 9.49084C63.03 9.49084 61.683 10.0408 60.704 11.1738C60.581 11.2968 60.458 11.2658 60.458 11.0828L60.46 11.0818ZM60.337 15.8268C60.3373 14.8121 60.7404 13.839 61.4579 13.1214C62.1753 12.4038 63.1483 12.0004 64.163 11.9998C65.1779 12.0001 66.1512 12.4034 66.8688 13.121C67.5865 13.8387 67.9898 14.8119 67.99 15.8268C67.9895 16.8416 67.5861 17.8146 66.8685 18.532C66.1509 19.2494 65.1778 19.6526 64.163 19.6528C63.1485 19.6523 62.1756 19.249 61.4582 18.5316C60.7408 17.8142 60.3376 16.8414 60.337 15.8268ZM130.102 11.5708C130.99 10.3468 132.612 9.48984 134.327 9.48984H134.449C134.51 9.48984 134.571 9.67284 134.571 9.88784V11.7858C134.571 11.9998 134.418 12.1218 134.204 12.1218H133.837C132.122 12.1218 130.714 13.0408 130.071 14.1418C129.98 14.3268 129.888 14.6318 129.888 14.8468V21.4288C129.89 21.4776 129.882 21.5262 129.864 21.5717C129.846 21.6171 129.819 21.6583 129.784 21.6928C129.75 21.7272 129.708 21.7542 129.663 21.7719C129.617 21.7897 129.569 21.7978 129.52 21.7958H127.622C127.573 21.7977 127.525 21.7894 127.479 21.7716C127.434 21.7538 127.393 21.7269 127.358 21.6924C127.324 21.658 127.297 21.6168 127.279 21.5714C127.261 21.5261 127.253 21.4775 127.255 21.4288V10.1628C127.255 9.94884 127.408 9.79584 127.622 9.79584H129.52C129.735 9.79584 129.888 9.94884 129.888 10.1628V11.5098C129.888 11.7238 129.98 11.7238 130.102 11.5708ZM141.551 9.48984C139.714 9.48984 138.245 10.1018 137.112 11.2958C135.949 12.4898 135.398 14.0198 135.398 15.7958C135.398 17.6938 136.041 19.1938 137.296 20.3568C138.582 21.5198 140.143 22.1328 142.01 22.1328C143.694 22.1328 145.071 21.7958 146.143 21.1528C146.327 21.0608 146.449 20.7858 146.449 20.5708V19.0708C146.449 18.8568 146.296 18.7958 146.143 18.8878C145.052 19.4745 143.831 19.7798 142.592 19.7758C140.296 19.7758 138.612 18.7038 138.153 16.8978C138.092 16.7138 138.245 16.5308 138.459 16.5308H146.909C147.122 16.5308 147.276 16.3778 147.276 16.1938V15.8568C147.276 13.6838 146.51 11.6938 144.735 10.4388C143.816 9.79584 142.775 9.48884 141.551 9.48884V9.48984ZM138.091 14.3568C138.337 12.8868 139.561 11.7238 141.398 11.7238C142.378 11.7238 143.143 12.0308 143.694 12.6118C144.214 13.1318 144.459 13.7448 144.52 14.3878C144.521 14.4161 144.515 14.4442 144.505 14.4704C144.494 14.4966 144.479 14.5204 144.459 14.5404C144.439 14.5604 144.415 14.5761 144.389 14.5867C144.362 14.5972 144.334 14.6024 144.306 14.6018H138.245C138.153 14.5718 138.061 14.4798 138.092 14.3568H138.091ZM154.776 9.48984C152.939 9.48984 151.469 10.1018 150.336 11.2958C149.173 12.4898 148.622 14.0198 148.622 15.7958C148.622 17.6938 149.265 19.1938 150.52 20.3568C151.806 21.5198 153.367 22.1328 155.235 22.1328C156.918 22.1328 158.295 21.7958 159.367 21.1528C159.551 21.0608 159.673 20.7858 159.673 20.5708V19.0708C159.673 18.8568 159.52 18.7958 159.367 18.8878C158.276 19.4744 157.056 19.7796 155.817 19.7758C153.52 19.7758 151.837 18.7038 151.377 16.8978C151.317 16.7138 151.469 16.5308 151.684 16.5308H160.102C160.316 16.5308 160.469 16.3778 160.469 16.1938V15.8568C160.469 13.6838 159.704 11.6938 157.929 10.4388C157.041 9.79584 156 9.48884 154.776 9.48884V9.48984ZM151.346 14.3568C151.592 12.8868 152.816 11.7238 154.653 11.7238C155.633 11.7238 156.398 12.0308 156.949 12.6118C157.469 13.1318 157.714 13.7448 157.776 14.3878C157.777 14.4162 157.771 14.4443 157.761 14.4706C157.75 14.4969 157.734 14.5207 157.714 14.5407C157.694 14.5607 157.67 14.5765 157.644 14.587C157.618 14.5975 157.589 14.6025 157.561 14.6018H151.531C151.408 14.5718 151.316 14.4798 151.347 14.3568H151.346ZM78.185 9.48984C77.3566 9.48866 76.536 9.65096 75.7704 9.96744C75.0048 10.2839 74.3092 10.7484 73.7234 11.3342C73.1376 11.92 72.6731 12.6156 72.3566 13.3812C72.0401 14.1469 71.8778 14.9674 71.879 15.7958C71.8778 16.6243 72.0401 17.4448 72.3566 18.2104C72.6731 18.9761 73.1376 19.6717 73.7234 20.2575C74.3092 20.8433 75.0048 21.3078 75.7704 21.6242C76.536 21.9407 77.3566 22.103 78.185 22.1018C79.0135 22.103 79.834 21.9407 80.5996 21.6242C81.3652 21.3078 82.0609 20.8433 82.6467 20.2575C83.2325 19.6717 83.6969 18.9761 84.0134 18.2104C84.3299 17.4448 84.4922 16.6243 84.491 15.7958C84.4922 14.9674 84.3299 14.1469 84.0134 13.3812C83.6969 12.6156 83.2325 11.92 82.6467 11.3342C82.0609 10.7484 81.3652 10.2839 80.5996 9.96744C79.834 9.65096 79.0135 9.48866 78.185 9.48984ZM78.185 19.5608C77.6904 19.5612 77.2006 19.4641 76.7436 19.2751C76.2866 19.086 75.8713 18.8087 75.5215 18.459C75.1718 18.1094 74.8944 17.6942 74.7052 17.2372C74.516 16.7802 74.4188 16.2904 74.419 15.7958C74.4188 15.3013 74.516 14.8115 74.7052 14.3545C74.8944 13.8975 75.1718 13.4823 75.5215 13.1326C75.8713 12.783 76.2866 12.5057 76.7436 12.3166C77.2006 12.1276 77.6904 12.0304 78.185 12.0308C78.6795 12.0306 79.1692 12.1278 79.6261 12.3169C80.083 12.506 80.4982 12.7833 80.8479 13.133C81.1975 13.4827 81.4748 13.8978 81.664 14.3547C81.8531 14.8116 81.9503 15.3013 81.95 15.7958C81.9503 16.2903 81.8531 16.78 81.664 17.237C81.4748 17.6939 81.1975 18.109 80.8479 18.4587C80.4982 18.8083 80.083 19.0857 79.6261 19.2748C79.1692 19.4639 78.6795 19.5611 78.185 19.5608ZM52.317 11.1728C51.337 10.0708 49.991 9.48984 48.277 9.48984C46.593 9.48984 45.185 10.1018 44.083 11.3268C42.981 12.5508 42.43 14.0508 42.43 15.7958C42.43 17.5708 42.98 19.0708 44.083 20.2958C45.185 21.5198 46.563 22.1328 48.277 22.1328C49.991 22.1328 51.337 21.5818 52.317 20.4488C52.44 20.2958 52.562 20.3268 52.562 20.5408V21.4288C52.562 21.6428 52.715 21.7958 52.93 21.7958H54.828C54.8767 21.7977 54.9252 21.7894 54.9706 21.7716C55.016 21.7538 55.0571 21.7269 55.0916 21.6924C55.126 21.658 55.153 21.6168 55.1708 21.5714C55.1886 21.5261 55.1968 21.4775 55.195 21.4288V0.36684C55.1969 0.318068 55.1886 0.269444 55.1707 0.224022C55.1529 0.1786 55.1258 0.137362 55.0913 0.102897C55.0567 0.0684329 55.0154 0.0414868 54.9699 0.0237518C54.9244 0.00601672 54.8758 -0.00212418 54.827 -0.000159588H52.929C52.8803 -0.00212418 52.8316 0.00601672 52.7861 0.0237518C52.7407 0.0414868 52.6994 0.0684329 52.6648 0.102897C52.6302 0.137362 52.6032 0.1786 52.5853 0.224022C52.5675 0.269444 52.5592 0.318068 52.561 0.36684V11.0818C52.561 11.2648 52.469 11.2958 52.316 11.1728H52.317ZM48.858 19.6528C47.8435 19.6523 46.8706 19.249 46.1532 18.5316C45.4358 17.8142 45.0326 16.8414 45.032 15.8268C45.0323 14.8123 45.4353 13.8393 46.1525 13.1217C46.8697 12.4042 47.8425 12.0006 48.857 11.9998C49.8719 12.0001 50.8452 12.4034 51.5628 13.121C52.2805 13.8387 52.6838 14.8119 52.684 15.8268C52.6835 16.8416 52.2801 17.8146 51.5625 18.532C50.8449 19.2494 49.8718 19.6526 48.857 19.6528H48.858ZM95.664 11.1728C94.684 10.0708 93.338 9.48984 91.624 9.48984C89.94 9.48984 88.532 10.1018 87.43 11.3268C86.328 12.5508 85.777 14.0508 85.777 15.7958C85.777 17.5708 86.327 19.0708 87.43 20.2958C88.532 21.5198 89.91 22.1328 91.623 22.1328C93.338 22.1328 94.685 21.5818 95.664 20.4488C95.787 20.2958 95.909 20.3268 95.909 20.5408V21.4288C95.909 21.6428 96.062 21.7958 96.277 21.7958H98.174C98.2228 21.7978 98.2714 21.7897 98.3169 21.7719C98.3624 21.7542 98.4037 21.7272 98.4382 21.6928C98.4728 21.6583 98.4999 21.6171 98.5177 21.5717C98.5356 21.5262 98.5439 21.4776 98.542 21.4288V0.36684C98.5439 0.317981 98.5356 0.269269 98.5176 0.223776C98.4997 0.178284 98.4726 0.136996 98.4379 0.102517C98.4032 0.068037 98.3618 0.0411129 98.3162 0.0234413C98.2706 0.00576975 98.2219 -0.00226606 98.173 -0.000159588H96.276C96.2273 -0.00212418 96.1786 0.00601672 96.1331 0.0237518C96.0877 0.0414868 96.0464 0.0684329 96.0118 0.102897C95.9772 0.137362 95.9502 0.1786 95.9323 0.224022C95.9145 0.269444 95.9062 0.318068 95.908 0.36684V11.0818C95.878 11.2648 95.786 11.2958 95.663 11.1728H95.664ZM92.205 19.6528C91.1905 19.6523 90.2176 19.249 89.5002 18.5316C88.7828 17.8142 88.3795 16.8414 88.379 15.8268C88.3793 14.8123 88.7823 13.8393 89.4995 13.1217C90.2167 12.4042 91.1895 12.0006 92.204 11.9998C93.2189 12.0001 94.1922 12.4034 94.9098 13.121C95.6275 13.8387 96.0308 14.8119 96.031 15.8268C96 17.9388 94.286 19.6528 92.204 19.6528H92.205ZM36.122 9.48984C38.969 9.48984 40.562 11.3878 40.562 14.4798V21.4288C40.5639 21.4776 40.5556 21.5262 40.5377 21.5717C40.5199 21.6171 40.4928 21.6583 40.4583 21.6928C40.4237 21.7272 40.3824 21.7542 40.3369 21.7719C40.2914 21.7897 40.2428 21.7978 40.194 21.7958H38.296C38.2473 21.7977 38.1988 21.7894 38.1535 21.7716C38.1081 21.7538 38.0669 21.7269 38.0325 21.6924C37.998 21.658 37.971 21.6168 37.9532 21.5714C37.9354 21.5261 37.9272 21.4775 37.929 21.4288L37.959 15.0608C37.9602 14.6545 37.8811 14.2519 37.7261 13.8762C37.5711 13.5005 37.3434 13.1592 37.056 12.8718C36.7687 12.5845 36.4274 12.3568 36.0517 12.2018C35.676 12.0468 35.2734 11.9677 34.867 11.9688C34.4607 11.9678 34.0582 12.047 33.6827 12.2021C33.3071 12.3571 32.9659 12.5848 32.6786 12.8722C32.3914 13.1595 32.1638 13.5008 32.0089 13.8764C31.854 14.252 31.7748 14.6545 31.776 15.0608L31.714 21.4288C31.7158 21.4775 31.7076 21.5261 31.6898 21.5714C31.672 21.6168 31.645 21.658 31.6106 21.6924C31.5761 21.7269 31.5349 21.7538 31.4896 21.7716C31.4442 21.7894 31.3957 21.7977 31.347 21.7958H29.449C29.4003 21.7977 29.3518 21.7894 29.3065 21.7716C29.2611 21.7538 29.2199 21.7269 29.1855 21.6924C29.151 21.658 29.124 21.6168 29.1062 21.5714C29.0884 21.5261 29.0802 21.4775 29.082 21.4288V10.1628C29.082 9.94884 29.235 9.79584 29.449 9.79584H31.347C31.561 9.79584 31.714 9.94884 31.714 10.1628V11.0198C31.714 11.2348 31.837 11.2648 31.959 11.1118C33.092 10.0408 34.469 9.48984 36.122 9.48984ZM23.786 21.4288V10.1628C23.786 9.94884 23.939 9.79584 24.153 9.79584H26.051C26.265 9.79584 26.418 9.94884 26.418 10.1628V21.4298C26.4198 21.4785 26.4116 21.5271 26.3938 21.5724C26.376 21.6178 26.349 21.659 26.3146 21.6934C26.2801 21.7279 26.2389 21.7548 26.1936 21.7726C26.1482 21.7904 26.0997 21.7987 26.051 21.7968H24.153C24.1043 21.7987 24.0558 21.7904 24.0105 21.7726C23.9651 21.7548 23.9239 21.7279 23.8895 21.6934C23.855 21.659 23.828 21.6178 23.8102 21.5724C23.7924 21.5271 23.7842 21.4785 23.786 21.4298V21.4288ZM26.724 2.75484C26.724 3.73484 25.959 4.43884 25.01 4.40784C24.092 4.37784 23.357 3.55084 23.418 2.60184C23.51 1.74484 24.184 1.07184 25.102 1.07184C26.02 1.07184 26.724 1.80584 26.724 2.75484ZM21.154 14.3268V21.4288C21.1559 21.4776 21.1476 21.5262 21.1297 21.5717C21.1119 21.6171 21.0848 21.6583 21.0502 21.6928C21.0157 21.7272 20.9744 21.7542 20.9289 21.7719C20.8834 21.7897 20.8348 21.7978 20.786 21.7958H18.888C18.8393 21.7978 18.7906 21.7897 18.7451 21.7719C18.6997 21.7542 18.6584 21.7272 18.6238 21.6928C18.5892 21.6583 18.5622 21.6171 18.5443 21.5717C18.5265 21.5262 18.5182 21.4776 18.52 21.4288V14.7858C18.5215 14.4236 18.4512 14.0647 18.3133 13.7298C18.1753 13.3949 17.9725 13.0906 17.7163 12.8345C17.4602 12.5784 17.1559 12.3755 16.821 12.2376C16.4861 12.0997 16.1272 12.0294 15.765 12.0308C15.4028 12.0294 15.0439 12.0997 14.709 12.2376C14.3741 12.3755 14.0698 12.5784 13.8137 12.8345C13.5576 13.0906 13.3547 13.3949 13.2168 13.7298C13.0788 14.0647 13.0086 14.4236 13.01 14.7858V21.4288C13.0118 21.4775 13.0036 21.5261 12.9858 21.5714C12.968 21.6168 12.941 21.658 12.9066 21.6924C12.8721 21.7269 12.8309 21.7538 12.7856 21.7716C12.7402 21.7894 12.6917 21.7977 12.643 21.7958H10.745C10.6963 21.7977 10.6478 21.7894 10.6025 21.7716C10.5571 21.7538 10.5159 21.7269 10.4815 21.6924C10.447 21.658 10.42 21.6168 10.4022 21.5714C10.3844 21.5261 10.3762 21.4775 10.378 21.4288V14.7858C10.3754 14.0478 10.081 13.3407 9.55911 12.8188C9.03721 12.2968 8.33011 12.0025 7.59203 11.9998C6.85394 12.0025 6.14684 12.2968 5.62494 12.8188C5.10303 13.3407 4.80866 14.0478 4.80603 14.7858V21.4288C4.80785 21.4775 4.7996 21.5261 4.7818 21.5714C4.76401 21.6168 4.73704 21.658 4.70259 21.6924C4.66814 21.7269 4.62695 21.7538 4.5816 21.7716C4.53625 21.7894 4.48771 21.7977 4.43903 21.7958H2.60203C2.55334 21.7977 2.5048 21.7894 2.45945 21.7716C2.4141 21.7538 2.37291 21.7269 2.33846 21.6924C2.30401 21.658 2.27704 21.6168 2.25925 21.5714C2.24145 21.5261 2.2332 21.4775 2.23503 21.4288V13.8368C2.23503 13.0408 1.86703 12.4288 0.888025 12.4288H0.368025C0.319083 12.4308 0.270262 12.4226 0.22465 12.4048C0.179038 12.3869 0.137628 12.3598 0.10304 12.3251C0.0684509 12.2904 0.0414363 12.2489 0.0237045 12.2033C0.00597263 12.1576 -0.00209046 12.1088 2.52083e-05 12.0598V10.1618C2.52083e-05 9.94784 0.153025 9.79484 0.367025 9.79484H1.77603C4.10203 9.73384 4.62203 10.9888 4.68403 11.0808C4.80603 11.2338 4.86703 11.2338 4.92903 11.1408C5.81603 10.1008 7.22402 9.54984 8.78603 9.54984C10.5 9.54984 11.786 10.2848 12.398 11.3558C12.49 11.5398 12.643 11.5398 12.765 11.3858C13.653 10.2848 15.122 9.54984 16.898 9.54984C19.561 9.54984 21.153 11.2338 21.153 14.3258L21.154 14.3268ZM176.02 19.5918V21.4898C176.022 21.5385 176.014 21.5871 175.996 21.6324C175.978 21.6778 175.951 21.719 175.917 21.7534C175.882 21.7879 175.841 21.8148 175.796 21.8326C175.75 21.8504 175.702 21.8587 175.653 21.8568H174.306C174.031 21.8568 173.786 21.8268 173.571 21.7958C171.337 21.3978 171.153 19.3158 171.153 18.8258V15.1218C171.154 14.7155 171.075 14.313 170.92 13.9375C170.765 13.5619 170.537 13.2207 170.25 12.9335C169.962 12.6462 169.621 12.4186 169.245 12.2637C168.87 12.1088 168.467 12.0297 168.061 12.0308C167.655 12.0297 167.252 12.1088 166.877 12.2637C166.501 12.4186 166.16 12.6462 165.872 12.9335C165.585 13.2207 165.357 13.5619 165.202 13.9375C165.047 14.313 164.968 14.7155 164.969 15.1218L164.939 21.4288C164.941 21.4776 164.933 21.5262 164.915 21.5717C164.897 21.6171 164.87 21.6583 164.835 21.6928C164.801 21.7272 164.759 21.7542 164.714 21.7719C164.668 21.7897 164.62 21.7978 164.571 21.7958H162.673C162.49 21.7958 162.367 21.6728 162.306 21.5198V10.1628C162.306 9.94884 162.459 9.79584 162.673 9.79584H164.571C164.694 9.79584 164.816 9.85684 164.878 9.94884C164.908 10.0098 164.938 10.0708 164.938 10.1628V11.1118C164.969 11.2348 165.061 11.2648 165.184 11.1418C166.316 10.0408 167.694 9.48984 169.316 9.48984C172.163 9.48984 173.756 11.3878 173.756 14.4798V18.3368C173.816 18.9488 174 19.1938 174.582 19.2238H175.653C175.867 19.2238 176.02 19.3778 176.02 19.5918ZM113.02 10.1318L112.286 11.8468L112.316 11.8168L106.806 24.5508C106.041 26.2648 105.031 27.5508 103.316 27.5808H101.571C101.522 27.5827 101.474 27.5744 101.428 27.5566C101.383 27.5388 101.342 27.5119 101.307 27.4774C101.273 27.443 101.246 27.4018 101.228 27.3564C101.21 27.3111 101.202 27.2625 101.204 27.2138V25.4078C101.204 25.1938 101.357 25.0408 101.571 25.0408H103.041C104.112 25.0408 104.724 23.1428 105.031 22.4688C105.214 22.0408 105.429 21.5818 105.429 21.5818L100.255 10.1628C100.163 9.97984 100.255 9.82684 100.469 9.82684H102.673C102.782 9.83237 102.887 9.86632 102.978 9.92529C103.069 9.98426 103.143 10.0662 103.193 10.1628L106.867 18.1528L110.204 10.1628C110.254 10.0663 110.328 9.9845 110.419 9.92555C110.51 9.8666 110.616 9.83257 110.724 9.82684H112.837C112.99 9.79584 113.082 9.94884 113.02 10.1328V10.1318ZM120.796 9.79584C120.735 9.79584 120.643 9.76584 120.582 9.76584C120.019 9.5801 119.43 9.48689 118.837 9.48984C115.837 9.48984 113.387 11.9388 113.387 14.9388C113.387 16.2548 113.847 17.4788 114.643 18.4288C114.673 18.4588 114.673 18.5508 114.643 18.5818C114.13 19.1901 113.849 19.9595 113.847 20.7548C113.847 21.3978 114.031 21.9798 114.337 22.4688C114.367 22.5308 114.367 22.5918 114.307 22.6218C113.387 23.3878 112.807 24.4898 112.807 25.7138V25.7438C112.807 26.0818 112.837 27.2138 113.786 28.2548C114.826 29.3878 116.541 29.9688 118.898 29.9688C121.194 29.9688 122.908 29.3878 123.949 28.2858C124.929 27.2138 124.989 26.0508 124.989 25.7448V25.7148C124.989 23.4488 123.061 21.6118 120.673 21.6118H117.062C116.839 21.6 116.63 21.5013 116.48 21.3368C116.48 21.3068 116.449 21.3068 116.449 21.2758C116.396 21.2007 116.355 21.1182 116.327 21.0308V20.9998C116.327 20.9698 116.296 20.9388 116.296 20.9078V20.7238C116.296 20.4178 116.418 20.1738 116.633 19.9898C116.663 19.9598 116.755 19.9598 116.816 19.9598C117.459 20.2176 118.144 20.3522 118.836 20.3568C121.836 20.3568 124.286 17.9078 124.286 14.9078C124.286 13.9588 124.041 13.0708 123.612 12.2758C123.582 12.2138 123.612 12.1838 123.673 12.1838H124.714C124.763 12.1858 124.812 12.1776 124.857 12.1599C124.903 12.1421 124.944 12.115 124.979 12.0804C125.013 12.0459 125.04 12.0045 125.058 11.959C125.076 11.9134 125.084 11.8647 125.082 11.8158V10.1328C125.084 10.084 125.076 10.0353 125.058 9.98971C125.04 9.94417 125.013 9.90281 124.979 9.86824C124.944 9.83366 124.903 9.80663 124.857 9.78883C124.812 9.77104 124.763 9.76287 124.714 9.76484H120.796V9.79484V9.79584ZM122.51 25.7448V25.9588C122.468 26.2033 122.35 26.4282 122.173 26.6018C121.623 27.2138 120.459 27.5198 118.929 27.5198C117.398 27.5198 116.235 27.2138 115.684 26.6328C115.347 26.2958 115.316 25.9588 115.316 25.8668V25.7138C115.316 24.8268 116.143 24.0918 117.153 24.0918H120.673C121.683 24.0918 122.51 24.8268 122.51 25.7448C122.51 25.7148 122.51 25.7448 122.51 25.7448ZM118.837 17.9688C117.184 17.9688 115.837 16.6218 115.837 14.9688C115.837 13.3158 117.184 11.9688 118.837 11.9688C120.49 11.9688 121.837 13.3158 121.837 14.9688C121.837 16.6218 120.49 17.9688 118.837 17.9688Z" fill="black"/>
		</g>
	</symbol>

	<!-- company -->
	<symbol id="company" viewBox="0 0 114 17">
		<g>
			<path fill-rule="evenodd" clip-rule="evenodd" d="M54.1728 4.59483C54.1728 6.89226 53.9439 14.0141 53.9439 14.0141C53.9439 15.3923 54.4018 16.0047 55.7011 16.0047V16.6171H50.5819V16.0047C51.8805 16.0047 52.5681 15.3923 52.5681 14.0141L53.0267 2.3741C52.6446 1.45486 52.2626 1.14867 51.2695 1.07261V0.536928H55.1659L59.292 11.4111L63.4946 0.536928H67.009V1.07261C66.0159 1.07261 65.4815 1.53222 65.4815 2.60423L65.94 13.8613C65.94 15.5464 66.2456 16.0054 67.6213 16.0054V16.6177H61.7381V16.0054C62.8836 16.0054 63.4194 15.6224 63.3422 13.8613C63.3422 13.8613 63.1126 5.97368 63.0367 4.59548L60.2105 12.4064C59.786 13.5068 59.4286 14.632 59.1402 15.7759L58.2243 15.8526C57.9947 15.0101 57.3837 13.4791 57.3837 13.4791C57.3837 13.4791 55.0128 6.81555 54.1728 4.59483ZM49.3592 16.6938C49.0537 16.6171 48.7482 16.6171 48.442 16.6171C47.831 16.6171 46.7607 16.9233 45.4621 16.9233C40.4954 16.9233 36.8279 13.9368 36.8279 8.42324C36.8279 3.7523 40.2664 0.153374 45.538 0.153374C46.76 0.153374 48.1358 0.383506 49.282 0.842474C49.511 0.61234 49.5875 0.459567 49.8165 0.230083H50.2751C50.1986 1.07261 49.893 3.82901 49.893 3.82901H49.4344C49.1289 2.22133 48.2883 1.14867 45.6139 1.14867C42.405 1.14867 39.5016 3.67559 39.5016 8.34718C39.5016 13.6312 42.4815 15.928 45.767 15.928C47.9069 15.928 49.2055 14.7032 50.0461 13.1716L50.5813 13.4017L49.3592 16.6938ZM34.9176 3.52282H34.3831C34.3066 2.0679 33.848 1.60829 32.7018 1.60829H30.486V13.6312C30.486 15.6218 30.8681 16.0047 32.1673 16.0047V16.6171H26.4365V16.0047C27.7357 16.0047 28.1178 15.6218 28.1178 13.5538V1.60829H25.902C24.4503 1.60829 24.2207 1.99119 23.8386 3.52282H23.3041L23.6862 0.0766602L24.0682 0.153374C24.2207 0.53628 24.5268 0.536278 25.4434 0.536278H32.8549C34.2307 0.536278 34.5362 0.536278 34.8417 0.0766602H35.3003L34.9176 3.52282Z" />
			<path fill-rule="evenodd" clip-rule="evenodd" d="M18.7195 17C17.6498 17 16.8092 16.8472 16.1981 16.6171C15.5871 16.4643 15.1285 16.2342 14.8995 16.0814C14.594 16.3876 14.3644 16.7705 14.3644 16.7705L13.9058 16.6177L14.2879 13.0188L14.823 13.0955C15.1285 14.7799 16.2747 16.0054 18.6436 16.0054C20.4773 16.0054 21.7 14.4744 21.7 12.7893C21.7 11.4111 21.1649 10.7214 19.3311 9.34317C18.7201 8.96027 18.185 8.65407 17.7264 8.27117C16.0457 7.19981 14.9754 5.97438 14.9754 3.98314C14.9754 1.6857 16.8857 0.154072 19.407 0.154072C20.8587 0.154072 21.7759 0.613691 22.0814 0.766463L22.6159 0.154072L22.998 0.230781L22.6159 3.52352L22.0814 3.44681C22.0814 1.91583 21.1642 1.22608 19.636 1.22608C18.1843 1.22608 17.1147 1.99189 17.1147 3.44681C17.1147 4.74895 18.1078 5.59082 19.2539 6.35728C19.865 6.74019 20.3236 7.04638 20.7815 7.35258C23.4559 9.26646 24.0669 10.4919 24.0669 12.3297C24.0682 15.0094 22.0049 17 18.7195 17ZM10.0094 3.52287H9.39832C9.39832 2.14401 8.78729 1.60834 7.56458 1.60834H4.12608V7.65813H6.34187C7.48804 7.65813 7.71766 7.04574 7.8701 6.04979H8.40459V10.3385H7.8701C7.71766 9.18975 7.48804 8.73013 6.26533 8.73013H4.12608V13.8613C4.12608 15.7752 4.58468 16.0054 5.80738 16.0054V16.6177H0V16.0054C1.45168 16.0054 1.68066 15.6224 1.68066 13.8613V2.60363C1.68066 1.53162 1.22206 1.07201 0 1.07201V0.536327H7.94599C9.32113 0.536327 9.62665 0.459618 9.85627 0H10.3914L10.0094 3.52287ZM92.4531 4.44145V13.6306C92.4531 15.6211 92.9104 16.0041 94.1331 16.0041V16.6164H85.1181V16.0041C85.8063 16.0041 86.4167 15.7739 86.4167 15.315C86.4167 15.0081 86.3408 14.4724 86.1871 13.9361L85.4989 11.7154H80.4569C80.3797 12.0222 79.4638 14.5485 79.4638 15.2382C79.4638 15.8506 80.152 16.0041 80.6093 16.0041V16.6164H76.4067V16.0041C77.1708 16.0041 77.7825 15.9273 78.317 14.3197L82.2141 1.83717C81.9845 1.30149 81.6796 1.14807 81.1451 1.07135V0.535677H84.5836L88.7084 13.6306C89.0911 15.0088 89.4725 15.6985 90.0842 16.0041C91.0014 15.6979 91.231 15.3917 91.231 13.6306V2.60363C90.5428 1.6844 90.4656 1.07201 89.167 1.07201V0.536327H93.0641L99.4825 11.4865V3.13996C99.4825 1.45492 99.1011 1.07201 97.8012 1.07201V0.536327H106.359V1.07201C105.824 1.07201 105.366 1.30214 105.366 1.83782C105.366 2.22072 105.519 2.60363 105.671 3.06325L108.117 8.34723L110.486 3.21667C110.867 2.52757 110.944 2.14466 110.944 1.76176C110.944 1.30214 110.637 1.07201 109.951 1.07201V0.536327H114V1.07201C113.007 1.07201 112.395 1.99124 111.937 3.0626L108.804 9.49529V13.7073C108.804 15.5457 109.263 16.0047 110.486 16.0047V16.6171H104.678V16.0047C105.901 16.0047 106.36 15.5457 106.36 13.7073V10.1083L102.997 2.98654C102.387 1.60834 102.157 1.30214 101.774 1.07201C101.01 1.3782 100.781 1.91453 100.781 3.13996V14.9327C100.781 14.9327 100.858 15.8519 100.934 16.9233L99.9411 17L92.4531 4.44145ZM82.9023 3.67564L80.7624 10.6447H85.194L82.9023 3.67564Z" />
			<path fill-rule="evenodd" clip-rule="evenodd" d="M73.4268 10.6448H72.2813V13.9368C72.2813 15.6219 72.7386 16.0048 74.0385 16.0048V16.6172H68.1552V16.0048C69.3779 16.0048 69.8365 15.5458 69.8365 13.8608V3.06338C69.8365 1.37898 69.3779 1.07279 68.1552 1.07279V0.537109H72.5868C76.8653 0.537109 79.386 1.8386 79.386 5.36082C79.3866 9.03646 76.3308 10.6448 73.4268 10.6448ZM72.6627 1.60847H72.2813V9.49542H72.9682C75.4908 9.49542 76.7894 8.34671 76.7894 5.43688C76.7894 2.52705 75.6426 1.60847 72.6627 1.60847ZM46.7607 13.5539C43.8573 13.5539 41.8705 11.486 41.8705 8.50013C41.8705 5.66701 43.9339 3.44629 46.7607 3.44629C49.5116 3.44629 51.5743 5.5903 51.5743 8.50013C51.575 11.3332 49.4351 13.5539 46.7607 13.5539ZM46.7607 4.36487C44.7745 4.36487 44.0863 6.2794 44.0863 8.50013C44.0863 10.5681 44.698 12.6354 46.7607 12.6354C48.7475 12.6354 49.3585 10.5674 49.3585 8.42342C49.3592 6.35612 48.5951 4.36487 46.7607 4.36487ZM13.1423 12.6354V12.099C13.9065 12.099 14.0595 11.8695 14.0595 11.6401C14.0595 11.3332 13.983 11.1037 13.9065 10.8742C13.9065 10.8742 13.7534 10.2612 13.6009 9.80227H10.621L10.3155 10.7975C10.2396 11.0277 10.1631 11.2572 10.1631 11.5633C10.1631 11.8702 10.4686 12.099 10.9272 12.099V12.6354H7.94727V12.099C8.71138 12.099 9.0169 11.8695 9.32241 11.0277L11.6148 4.13539C11.5382 3.82854 11.3086 3.59906 10.8507 3.59906V3.06273H13.2948C14.1286 5.51566 14.969 7.96632 15.8161 10.4146C16.1981 11.7161 16.5802 12.099 17.1912 12.099V12.6354H13.1423ZM12.0721 5.2074L10.9259 8.95975H13.2948L12.0721 5.2074Z" />
		</g>
	</symbol>

	<!-- mail -->
	<symbol id="mail" viewBox="0 0 28 20">
		<g>
			<path d="M14 8.81L26.78 0.6C26.2662 0.214614 25.6423 0.00430105 25 0H3C2.35774 0.00430105 1.73381 0.214614 1.22 0.6L14 8.81ZM14.54 10.84L14.37 10.92H14.29C14.1979 10.9611 14.1001 10.9881 14 11C13.917 11.0105 13.833 11.0105 13.75 11H13.67L13.5 10.92L0.0999999 2.26C0.0359781 2.50154 0.0023847 2.75013 0 3V17C0 17.7956 0.316071 18.5587 0.87868 19.1213C1.44129 19.6839 2.20435 20 3 20H25C25.7956 20 26.5587 19.6839 27.1213 19.1213C27.6839 18.5587 28 17.7956 28 17V3C27.9976 2.75013 27.964 2.50154 27.9 2.26L14.54 10.84Z" />
		</g>
	</symbol>

	<!-- pinterest -->
	<symbol id="pinterest" viewBox="0 0 19 23">
		<g>
			<path fill-rule="evenodd" clip-rule="evenodd" d="M7.489 14.727C6.874 17.793 6.123 20.732 3.899 22.267C3.212 17.634 4.907 14.154 5.694 10.46C4.352 8.311 5.855 3.988 8.686 5.054C12.169 6.364 5.67 13.04 10.033 13.874C14.588 14.744 16.448 6.359 13.623 3.631C9.542 -0.306997 1.743 3.541 2.701 9.179C2.935 10.558 4.432 10.976 3.3 12.879C0.686997 12.327 -0.0920019 10.369 0.00799813 7.757C0.169998 3.482 4.048 0.489002 7.938 0.0750019C12.858 -0.448998 17.474 1.792 18.112 6.192C18.829 11.158 15.892 16.537 10.631 16.15C9.205 16.045 8.607 15.373 7.489 14.728V14.727Z" />
		</g>
	</symbol>

	<!-- twitter -->
	<symbol id="twitter" viewBox="0 0 22 18">
		<g>
			<path d="M19.589 5.0099C19.589 4.8179 19.585 4.6269 19.576 4.4379C20.4499 3.8247 21.2063 3.05915 21.809 2.1779C20.9898 2.52448 20.1237 2.74758 19.239 2.8399C20.1705 2.30294 20.8712 1.44129 21.207 0.419903C20.3258 0.922508 19.3654 1.27117 18.367 1.4509C17.9479 1.00196 17.4426 0.642161 16.8812 0.393019C16.3199 0.143877 15.7141 0.0105124 15.1 0.000903431C14.5163 -0.0109469 13.9361 0.0938871 13.3934 0.309256C12.8508 0.524625 12.3566 0.846191 11.9399 1.25509C11.5231 1.664 11.1923 2.152 10.9666 2.69048C10.741 3.22896 10.6252 3.80707 10.626 4.3909C10.626 4.7409 10.664 5.0809 10.742 5.4089C7.021 5.1829 3.723 3.3589 1.517 0.610903C1.11862 1.29476 0.909776 2.07247 0.912 2.8639C0.912 4.4239 1.702 5.8109 2.902 6.6289C2.18946 6.5985 1.49449 6.39828 0.875 6.0449V6.1019C0.87459 7.14048 1.23099 8.14768 1.88453 8.95486C2.53806 9.76205 3.44906 10.3202 4.465 10.5359C3.80531 10.7106 3.11443 10.7325 2.445 10.5999C2.72892 11.4925 3.28419 12.2743 4.03344 12.8364C4.78269 13.3986 5.68861 13.713 6.625 13.7359C5.03919 14.977 3.08171 15.648 1.068 15.6409C0.707 15.6409 0.35 15.6179 0 15.5769C2.04313 16.9001 4.42582 17.6031 6.86 17.6009C15.089 17.6029 19.589 10.8609 19.589 5.0109V5.0099Z" />
		</g>
	</symbol>

	<!-- instagram -->
	<symbol id="instagram" viewBox="0 0 23 23">
		<g>
			<path fill-rule="evenodd" clip-rule="evenodd" d="M11.134 0C8.114 0 7.729 0.0129997 6.544 0.0699997C5.359 0.129 4.552 0.315 3.846 0.598C3.09851 0.883348 2.42412 1.33192 1.872 1.911C1.30542 2.48359 0.867061 3.1701 0.586 3.925C0.309 4.645 0.12 5.475 0.0690002 6.679L0.066 6.755C0.018 7.906 0 8.34 0 11.363C0 14.445 0.0129997 14.831 0.0699997 16.047C0.126 17.257 0.309 18.081 0.586 18.801C0.862241 19.5583 1.30122 20.2458 1.872 20.815C2.42589 21.392 3.09978 21.8402 3.846 22.128C4.552 22.411 5.366 22.598 6.544 22.655C7.729 22.713 8.108 22.726 11.134 22.726C14.154 22.726 14.532 22.713 15.724 22.656C16.908 22.597 17.715 22.411 18.428 22.128C19.172 21.8399 19.8436 21.3916 20.395 20.815C20.9616 20.2424 21.3999 19.5559 21.681 18.801C21.952 18.081 22.141 17.257 22.198 16.047L22.201 15.971C22.249 14.82 22.267 14.386 22.267 11.363C22.267 8.281 22.255 7.895 22.197 6.679C22.141 5.469 21.952 4.646 21.681 3.925C21.4023 3.16891 20.9637 2.48191 20.395 1.911C19.8405 1.33479 19.1668 0.886672 18.421 0.598C17.709 0.315 16.902 0.128 15.717 0.0710001C14.532 0.0130001 14.153 0 11.134 0ZM10.142 2.042H11.138C14.107 2.042 14.46 2.055 15.633 2.106C16.717 2.157 17.303 2.344 17.701 2.499C18.218 2.704 18.589 2.949 18.981 3.348C19.371 3.747 19.611 4.126 19.812 4.654C19.964 5.053 20.147 5.658 20.197 6.764C20.247 7.961 20.26 8.322 20.26 11.352C20.26 14.382 20.248 14.743 20.197 15.94C20.147 17.047 19.964 17.645 19.812 18.05C19.6344 18.5414 19.3503 18.9874 18.98 19.356C18.59 19.756 18.224 20 17.7 20.206C17.31 20.36 16.717 20.546 15.633 20.598C14.46 20.65 14.107 20.663 11.138 20.663C8.168 20.663 7.815 20.65 6.643 20.598C5.558 20.547 4.972 20.36 4.575 20.206C4.08993 20.0224 3.65243 19.7318 3.295 19.356C2.92468 18.9874 2.64055 18.5414 2.463 18.05C2.311 17.651 2.129 17.047 2.078 15.94C2.028 14.743 2.015 14.383 2.015 11.352C2.015 8.322 2.028 7.962 2.078 6.764C2.128 5.658 2.311 5.059 2.463 4.654C2.665 4.126 2.904 3.747 3.295 3.348C3.685 2.948 4.058 2.704 4.575 2.498C4.965 2.344 5.558 2.158 6.643 2.106C7.67 2.055 8.067 2.042 10.141 2.042H10.142ZM15.739 5.302C15.739 4.548 16.338 3.937 17.075 3.937C17.813 3.937 18.412 4.548 18.412 5.301C18.412 6.054 17.812 6.665 17.075 6.665C16.338 6.665 15.739 6.054 15.739 5.301V5.302ZM11.129 5.532C7.97 5.532 5.417 8.144 5.417 11.362C5.417 14.585 7.977 17.191 11.129 17.191C14.287 17.191 16.841 14.578 16.841 11.361C16.841 8.138 14.287 5.531 11.129 5.531V5.532ZM14.841 11.354C14.841 9.264 13.183 7.571 11.134 7.571C9.085 7.571 7.427 9.263 7.427 11.354C7.427 13.445 9.085 15.138 11.134 15.138C13.184 15.138 14.841 13.445 14.841 11.354Z" />
		</g>
	</symbol>

	<!-- linkedin -->
	<symbol id="linkedin" viewBox="0 0 18 18">
		<g>
			<path fill-rule="evenodd" clip-rule="evenodd" d="M2.076 4.108C3.372 4.108 4.179 3.195 4.179 2.053C4.155 0.886999 3.372 0 2.102 0C0.831999 0 0 0.886999 0 2.053C0 3.195 0.807001 4.108 2.054 4.108H2.076ZM17.33 17.622V10.806C17.33 7.155 15.497 5.455 13.053 5.455C11.08 5.455 10.197 6.609 9.703 7.418V5.735H5.988C6.038 6.85 5.988 17.622 5.988 17.622H9.704V10.983C9.704 10.628 9.728 10.273 9.826 10.02C10.094 9.31 10.706 8.575 11.731 8.575C13.077 8.575 13.614 9.665 13.614 11.263V17.623L17.33 17.622ZM3.93 5.732V17.619H0.214V5.732H3.929H3.93Z" />
		</g>
	</symbol>

	<!-- facebook -->
	<symbol id="fb" viewBox="0 0 10 19">
		<g>
			<path d="M5.349 18.914V9.444H8.668L9.192 6.306H5.35V4.733C5.35 3.913 5.635 3.133 6.883 3.133H9.379V0H5.836C2.858 0 2.045 1.846 2.045 4.406V6.305H0V9.445H2.044V18.915H5.349V18.914Z" />
		</g>
	</symbol>

	<!-- arrow -->
	<symbol id="arrow" viewBox="0 0 24 24">
		<g>
			<path fill="transparent" d="M14.4301 5.92993L20.5001 11.9999L14.4301 18.0699" stroke-width="1.5" stroke-miterlimit="10" stroke-linecap="round" stroke-linejoin="round"/>
			<path d="M3.5 12H20.33" stroke-width="1.5" stroke-miterlimit="10" stroke-linecap="round" stroke-linejoin="round"/>
		</g>
	</symbol>

</svg>